<?xml version="1.0" encoding="UTF-8" standalone="no"?>
<!DOCTYPE svg PUBLIC "-//W3C//DTD SVG 1.1//EN" "http://www.w3.org/Graphics/SVG/1.1/DTD/svg11.dtd">
<svg width="500" height="500" viewBox="40 40 636 636" version="1.1" xmlns="http://www.w3.org/2000/svg" xmlns:xlink="http://www.w3.org/1999/xlink" xml:space="preserve" xmlns:serif="http://www.serif.com/" style="fill-rule:evenodd;clip-rule:evenodd;">
    <g id="canvas2" transform="matrix(1,0,0,1,-749.085526,0)">
        <rect x="749.086" y="0" width="716.001" height="716" style="fill:none;"/>
        <g transform="matrix(1,0,0,1,595.086236,-154)">
            <!-- Evenly spaced dots: normalize dash pattern using pathLength and round caps. -->
            <circle cx="512" cy="512" r="288" pathLength="1000" style="fill:none;stroke:rgb(14,165,233);stroke-width:14px;stroke-linecap:round;stroke-dasharray:2 18;"/>
        </g>
        <g transform="matrix(1,0,0,1,206.086236,-40.882644)">
            <circle cx="760" cy="278" r="14" style="fill:rgb(14,165,233);"/>
        </g>
        <g transform="matrix(1,0,0,1,650.086236,-177)">
            <path d="M364,372C396,340 450,340 482,372L588,478C620,510 620,564 588,596L486,698C454,730 400,730 368,698L340,670C308,638 308,584 340,552L442,450" style="fill:none;fill-rule:nonzero;stroke:rgb(20,184,166);stroke-width:34px;stroke-linecap:round;stroke-linejoin:round;"/>
        </g>
        <g transform="matrix(1,0,0,1,650.086236,-177)">
            <circle cx="406" cy="632" r="28" style="fill:rgb(204,251,241);stroke:rgb(15,23,42);stroke-width:14px;"/>
        </g>
        <g transform="matrix(1,0,0,1,650.086236,-177)">
            <circle cx="406" cy="632" r="9" style="fill:rgb(15,23,42);"/>
        </g>
    </g>
</svg>
